<svg width="76" height="66" viewBox="0 0 76 66" fill="none" xmlns="http://www.w3.org/2000/svg">
<g id="Frame" clip-path="url(#clip0_258_208)" filter="url(#filter0_d_258_208)">
<g id="Group">
<path id="Vector" d="M46.6576 17.3315C44.4081 15.3601 41.3804 14.2747 38.1327 14.2747C31.4282 14.2747 25.9689 18.8904 25.9305 24.5771V24.6381C25.9502 28.6782 27.9077 30.9637 29.4822 32.8023C30.7024 34.2268 31.5081 35.1675 31.5081 36.7539V39.5554C31.5081 41.9794 33.808 43.9517 36.6349 43.9517H39.6299C42.4745 43.9517 44.7884 41.9794 44.7884 39.5554V36.7539C44.7884 35.1388 45.6023 34.1409 46.7287 32.7599C48.2233 30.9274 50.0817 28.6499 50.1003 24.6381V24.5771H50.0998C50.0822 21.8335 48.8614 19.2626 46.6576 17.3315ZM36.8201 39.4209V37.1557H39.4764V39.4209H36.8201ZM42.3687 30.1721C41.7606 30.9173 41.1173 31.7067 40.5918 32.6245H35.6632C35.106 31.6881 34.4196 30.8858 33.7717 30.1296C32.4207 28.5521 31.2529 27.1887 31.2425 24.6116C31.2596 21.4078 34.3439 18.8055 38.1327 18.8055C41.8545 18.8055 44.7728 21.3534 44.7884 24.6116C44.7785 27.217 43.661 28.5875 42.3687 30.1721ZM69.3063 29.1149C70.1094 27.3631 70.7439 25.6015 71.1968 23.8487C72.1529 20.1476 72.2556 16.6686 71.5023 13.5087C70.6941 10.1164 68.939 7.24945 66.2863 4.98692C63.6332 2.72395 60.2719 1.22695 56.2948 0.537531C52.5906 -0.104986 48.5118 -0.01737 44.172 0.798167C42.1171 1.18447 40.0517 1.72566 37.9978 2.41065C35.9449 1.72654 33.8811 1.18447 31.8277 0.798167C27.4885 -0.01737 23.4097 -0.104986 19.7044 0.537531C15.7278 1.22695 12.3665 2.72395 9.7134 4.98692C7.06078 7.24945 5.30569 10.1164 4.4974 13.5087C3.7441 16.6686 3.84682 20.1476 4.80297 23.8487C5.25536 25.6001 5.89141 27.3604 6.69295 29.1114C5.89037 30.8633 5.25588 32.6249 4.80297 34.3777C3.84682 38.0788 3.7441 41.5577 4.4974 44.7177C5.30569 48.1099 7.06078 50.9769 9.7134 53.2394C12.3665 55.5024 15.7278 56.9989 19.7044 57.6888C21.3355 57.9716 23.0387 58.1132 24.8053 58.1132C27.0511 58.1132 29.3987 57.8844 31.8272 57.4277C33.8822 57.0414 35.9475 56.5007 38.0019 55.8157C40.0548 56.4998 42.1186 57.0419 44.172 57.4277C46.601 57.8844 48.9481 58.1132 51.194 58.1132C52.96 58.1132 54.6642 57.9716 56.2948 57.6888C60.2719 56.9989 63.6332 55.502 66.2858 53.2399C68.939 50.9769 70.6935 48.1099 71.5023 44.7177C72.2556 41.5577 72.1529 38.0788 71.1963 34.3777C70.7439 32.6262 70.1083 30.8659 69.3063 29.1149ZM45.3149 5.22322C47.3865 4.83381 49.3642 4.64132 51.2225 4.64132C55.8772 4.64132 59.7837 5.84803 62.5297 8.19065C66.373 11.4683 67.6082 16.6828 66.0088 22.8734C65.9818 22.9787 65.9533 23.0836 65.9242 23.1889C63.4931 19.6453 60.398 16.2336 56.7487 13.1215C53.1 10.0089 49.1001 7.36892 44.9455 5.29534C45.069 5.27056 45.192 5.24623 45.3149 5.22322ZM30.6843 53.0036C28.6127 53.393 26.6356 53.585 24.7767 53.585C20.1226 53.585 16.216 52.3783 13.4695 50.0357C9.62676 46.7581 8.39098 41.5436 9.99044 35.3529C10.0174 35.2476 10.0465 35.1427 10.075 35.0374C12.5061 38.581 15.6012 41.9927 19.2505 45.1049C22.8997 48.2174 26.8996 50.8574 31.0537 52.9314C30.9307 52.9558 30.8078 52.9801 30.6843 53.0036ZM62.5297 50.0357C58.687 53.3138 52.5729 54.3678 45.3149 53.0036C45.1925 52.9801 45.0695 52.9549 44.9466 52.9306C47.027 51.892 49.0684 50.7118 51.0466 49.4011C49.4358 48.6768 48.1491 47.497 47.4254 46.0624C44.3935 48.0387 41.2159 49.6702 37.9988 50.9057C32.7413 48.8874 27.5881 45.8089 23.0066 41.9011C18.4256 37.9938 14.8163 33.5984 12.4501 29.1141C13.9115 26.3449 15.8466 23.6097 18.1921 21.0021C16.4868 20.4339 15.0664 19.3785 14.1657 18.0373C12.6477 19.7082 11.2807 21.4317 10.076 23.1876C10.0475 23.0827 10.0174 22.9783 9.99044 22.8734C8.39098 16.6828 9.62676 11.4683 13.4695 8.19065C16.216 5.84803 20.1221 4.64132 24.7767 4.64132C26.6351 4.64132 28.6132 4.83381 30.6843 5.22322C30.8067 5.24578 30.9297 5.27145 31.0521 5.29579C29.0003 6.32019 26.9853 7.4822 25.0325 8.77211C26.6045 9.54074 27.8413 10.7528 28.5069 12.2077C31.559 10.212 34.76 8.56501 38.0004 7.32069C43.2584 9.3394 48.4111 12.4179 52.9926 16.3252C57.5742 20.233 61.1829 24.6279 63.5497 29.1127C62.1038 31.8514 60.1951 34.5569 57.8839 37.1384C59.5663 37.7553 60.95 38.8523 61.7998 40.2262C63.3313 38.5438 64.7097 36.8074 65.9232 35.0388C65.9517 35.1436 65.9818 35.2485 66.0088 35.3529C67.6082 41.5436 66.373 46.7581 62.5297 50.0357ZM57.4045 43.3853C57.4045 44.6367 56.2154 45.6509 54.7483 45.6509C53.2816 45.6509 52.0925 44.6367 52.0925 43.3853C52.0925 42.1343 53.2816 41.1201 54.7483 41.1201C56.2154 41.1201 57.4045 42.1343 57.4045 43.3853ZM23.6727 14.7278C23.6727 15.9787 22.4836 16.993 21.017 16.993C19.5498 16.993 18.3607 15.9787 18.3607 14.7278C18.3607 13.4764 19.5498 12.4622 21.017 12.4622C22.4836 12.4622 23.6727 13.4764 23.6727 14.7278Z" fill="#C73638"/>
<path id="Vector_2" d="M46.6576 17.3315C44.4081 15.3601 41.3804 14.2747 38.1327 14.2747C31.4282 14.2747 25.9689 18.8904 25.9305 24.5771V24.6381C25.9502 28.6782 27.9077 30.9637 29.4822 32.8023C30.7024 34.2268 31.5081 35.1675 31.5081 36.7539V39.5554C31.5081 41.9794 33.808 43.9517 36.6349 43.9517H39.6299C42.4745 43.9517 44.7884 41.9794 44.7884 39.5554V36.7539C44.7884 35.1388 45.6023 34.1409 46.7287 32.7599C48.2233 30.9274 50.0817 28.6499 50.1003 24.6381V24.5771H50.0998C50.0822 21.8335 48.8614 19.2626 46.6576 17.3315ZM36.8201 39.4209V37.1557H39.4764V39.4209H36.8201ZM42.3687 30.1721C41.7606 30.9173 41.1173 31.7067 40.5918 32.6245H35.6632C35.106 31.6881 34.4196 30.8858 33.7717 30.1296C32.4207 28.5521 31.2529 27.1887 31.2425 24.6116C31.2596 21.4078 34.3439 18.8055 38.1327 18.8055C41.8545 18.8055 44.7728 21.3534 44.7884 24.6116C44.7785 27.217 43.661 28.5875 42.3687 30.1721ZM69.3063 29.1149C70.1094 27.3631 70.7439 25.6015 71.1968 23.8487C72.1529 20.1476 72.2556 16.6686 71.5023 13.5087C70.6941 10.1164 68.939 7.24945 66.2863 4.98692C63.6332 2.72395 60.2719 1.22695 56.2948 0.537531C52.5906 -0.104986 48.5118 -0.01737 44.172 0.798167C42.1171 1.18447 40.0517 1.72566 37.9978 2.41065C35.9449 1.72654 33.8811 1.18447 31.8277 0.798167C27.4885 -0.01737 23.4097 -0.104986 19.7044 0.537531C15.7278 1.22695 12.3665 2.72395 9.7134 4.98692C7.06078 7.24945 5.30569 10.1164 4.4974 13.5087C3.7441 16.6686 3.84682 20.1476 4.80297 23.8487C5.25536 25.6001 5.89141 27.3604 6.69295 29.1114C5.89037 30.8633 5.25588 32.6249 4.80297 34.3777C3.84682 38.0788 3.7441 41.5577 4.4974 44.7177C5.30569 48.1099 7.06078 50.9769 9.7134 53.2394C12.3665 55.5024 15.7278 56.9989 19.7044 57.6888C21.3355 57.9716 23.0387 58.1132 24.8053 58.1132C27.0511 58.1132 29.3987 57.8844 31.8272 57.4277C33.8822 57.0414 35.9475 56.5007 38.0019 55.8157C40.0548 56.4998 42.1186 57.0419 44.172 57.4277C46.601 57.8844 48.9481 58.1132 51.194 58.1132C52.96 58.1132 54.6642 57.9716 56.2948 57.6888C60.2719 56.9989 63.6332 55.502 66.2858 53.2399C68.939 50.9769 70.6935 48.1099 71.5023 44.7177C72.2556 41.5577 72.1529 38.0788 71.1963 34.3777C70.7439 32.6262 70.1083 30.8659 69.3063 29.1149ZM45.3149 5.22322C47.3865 4.83381 49.3642 4.64132 51.2225 4.64132C55.8772 4.64132 59.7837 5.84803 62.5297 8.19065C66.373 11.4683 67.6082 16.6828 66.0088 22.8734C65.9818 22.9787 65.9533 23.0836 65.9242 23.1889C63.4931 19.6453 60.398 16.2336 56.7487 13.1215C53.1 10.0089 49.1001 7.36892 44.9455 5.29534C45.069 5.27056 45.192 5.24623 45.3149 5.22322ZM30.6843 53.0036C28.6127 53.393 26.6356 53.585 24.7767 53.585C20.1226 53.585 16.216 52.3783 13.4695 50.0357C9.62676 46.7581 8.39098 41.5436 9.99044 35.3529C10.0174 35.2476 10.0465 35.1427 10.075 35.0374C12.5061 38.581 15.6012 41.9927 19.2505 45.1049C22.8997 48.2174 26.8996 50.8574 31.0537 52.9314C30.9307 52.9558 30.8078 52.9801 30.6843 53.0036ZM62.5297 50.0357C58.687 53.3138 52.5729 54.3678 45.3149 53.0036C45.1925 52.9801 45.0695 52.9549 44.9466 52.9306C47.027 51.892 49.0684 50.7118 51.0466 49.4011C49.4358 48.6768 48.1491 47.497 47.4254 46.0624C44.3935 48.0387 41.2159 49.6702 37.9988 50.9057C32.7413 48.8874 27.5881 45.8089 23.0066 41.9011C18.4256 37.9938 14.8163 33.5984 12.4501 29.1141C13.9115 26.3449 15.8466 23.6097 18.1921 21.0021C16.4868 20.4339 15.0664 19.3785 14.1657 18.0373C12.6477 19.7082 11.2807 21.4317 10.076 23.1876C10.0475 23.0827 10.0174 22.9783 9.99044 22.8734C8.39098 16.6828 9.62676 11.4683 13.4695 8.19065C16.216 5.84803 20.1221 4.64132 24.7767 4.64132C26.6351 4.64132 28.6132 4.83381 30.6843 5.22322C30.8067 5.24578 30.9297 5.27145 31.0521 5.29579C29.0003 6.32019 26.9853 7.4822 25.0325 8.77211C26.6045 9.54074 27.8413 10.7528 28.5069 12.2077C31.559 10.212 34.76 8.56501 38.0004 7.32069C43.2584 9.3394 48.4111 12.4179 52.9926 16.3252C57.5742 20.233 61.1829 24.6279 63.5497 29.1127C62.1038 31.8514 60.1951 34.5569 57.8839 37.1384C59.5663 37.7553 60.95 38.8523 61.7998 40.2262C63.3313 38.5438 64.7097 36.8074 65.9232 35.0388C65.9517 35.1436 65.9818 35.2485 66.0088 35.3529C67.6082 41.5436 66.373 46.7581 62.5297 50.0357ZM57.4045 43.3853C57.4045 44.6367 56.2154 45.6509 54.7483 45.6509C53.2816 45.6509 52.0925 44.6367 52.0925 43.3853C52.0925 42.1343 53.2816 41.1201 54.7483 41.1201C56.2154 41.1201 57.4045 42.1343 57.4045 43.3853ZM23.6727 14.7278C23.6727 15.9787 22.4836 16.993 21.017 16.993C19.5498 16.993 18.3607 15.9787 18.3607 14.7278C18.3607 13.4764 19.5498 12.4622 21.017 12.4622C22.4836 12.4622 23.6727 13.4764 23.6727 14.7278Z" fill="#C73638"/>
</g>
</g>
<defs>
<filter id="filter0_d_258_208" x="0" y="0" width="76" height="66" filterUnits="userSpaceOnUse" color-interpolation-filters="sRGB">
<feFlood flood-opacity="0" result="BackgroundImageFix"/>
<feColorMatrix in="SourceAlpha" type="matrix" values="0 0 0 0 0 0 0 0 0 0 0 0 0 0 0 0 0 0 127 0" result="hardAlpha"/>
<feOffset dy="4"/>
<feGaussianBlur stdDeviation="2"/>
<feComposite in2="hardAlpha" operator="out"/>
<feColorMatrix type="matrix" values="0 0 0 0 0 0 0 0 0 0 0 0 0 0 0 0 0 0 0.25 0"/>
<feBlend mode="normal" in2="BackgroundImageFix" result="effect1_dropShadow_258_208"/>
<feBlend mode="normal" in="SourceGraphic" in2="effect1_dropShadow_258_208" result="shape"/>
</filter>
<clipPath id="clip0_258_208">
<rect width="68" height="58" fill="white" transform="translate(4)"/>
</clipPath>
</defs>
</svg>
