<svg width="68" height="65" viewBox="0 0 68 65" fill="none" xmlns="http://www.w3.org/2000/svg">
<g id="carbon:carbon-for-ibm-product" filter="url(#filter0_d_258_218)">
<path id="Vector" d="M47.8316 22.9987L35.0816 16.5643C34.7541 16.3989 34.3804 16.3117 33.9997 16.312C33.619 16.3123 33.2455 16.4001 32.9184 16.5662L20.1684 23.0005C19.8505 23.1605 19.587 23.3884 19.404 23.6617C19.221 23.9351 19.1249 24.2445 19.125 24.5593V37.0655C19.125 37.7072 19.5224 38.2999 20.1684 38.6243L32.9184 45.0587C33.2451 45.2259 33.619 45.3143 34 45.3143C34.381 45.3143 34.7549 45.2259 35.0816 45.0587L47.8316 38.6243C48.1495 38.4644 48.413 38.2365 48.596 37.9631C48.779 37.6897 48.8751 37.3803 48.875 37.0655V24.5593C48.8751 24.2443 48.7789 23.9346 48.5959 23.661C48.413 23.3873 48.1495 23.1591 47.8316 22.9987ZM44.625 36.0324L34 41.3938L23.375 36.0324V25.5924L34 20.231L44.625 25.5924V36.0324Z" fill="#C73638"/>
<path id="Vector_2" d="M12.75 36.5835V20.0644L25.925 13.4234L23.7639 10.3022L9.54338 17.4707C9.22546 17.631 8.96203 17.8593 8.77906 18.133C8.5961 18.4066 8.49991 18.7162 8.5 19.0312V36.5835C7.26063 36.9561 6.18682 37.6467 5.42589 38.5605C4.66496 39.4744 4.25421 40.5666 4.25 41.6875C4.25 44.6854 7.11025 47.125 10.625 47.125C14.1398 47.125 17 44.6854 17 41.6875C16.9958 40.5666 16.585 39.4744 15.8241 38.5605C15.0632 37.6467 13.9894 36.9561 12.75 36.5835ZM10.625 43.5C10.0779 43.4791 9.56124 43.279 9.18271 42.9414C8.80419 42.6038 8.59293 42.1546 8.59293 41.6875C8.59293 41.2203 8.80419 40.7712 9.18271 40.4336C9.56124 40.096 10.0779 39.8959 10.625 39.875C11.1721 39.8959 11.6888 40.096 12.0673 40.4336C12.4458 40.7712 12.6571 41.2203 12.6571 41.6875C12.6571 42.1546 12.4458 42.6038 12.0673 42.9414C11.6888 43.279 11.1721 43.4791 10.625 43.5ZM57.375 36.25C53.8602 36.25 51 38.6896 51 41.6875C51 42.3273 51.153 42.9327 51.3931 43.5036L34 52.2689L20.3915 45.4104L18.2304 48.5315L32.9184 55.9337C33.2455 56.0998 33.619 56.1876 33.9997 56.1879C34.3804 56.1882 34.7541 56.101 35.0816 55.9356L54.1216 46.3384C55.0779 46.8259 56.1829 47.125 57.375 47.125C60.8898 47.125 63.75 44.6854 63.75 41.6875C63.75 38.6896 60.8898 36.25 57.375 36.25ZM57.375 43.5C56.8279 43.4791 56.3112 43.279 55.9327 42.9414C55.5542 42.6038 55.3429 42.1546 55.3429 41.6875C55.3429 41.2203 55.5542 40.7712 55.9327 40.4336C56.3112 40.096 56.8279 39.8959 57.375 39.875C57.9221 39.8959 58.4388 40.096 58.8173 40.4336C59.1958 40.7712 59.4071 41.2203 59.4071 41.6875C59.4071 42.1546 59.1958 42.6038 58.8173 42.9414C58.4388 43.279 57.9221 43.4791 57.375 43.5ZM34 12.6875C35.5534 12.6875 36.958 12.1927 38.0651 11.4042L55.25 20.0662V32.625H59.5V19.0312C59.5001 18.7162 59.4039 18.4066 59.2209 18.133C59.038 17.8593 58.7745 17.631 58.4566 17.4707L40.2517 8.29581C40.3282 7.95687 40.375 7.60887 40.375 7.25C40.375 4.25212 37.5148 1.8125 34 1.8125C30.4853 1.8125 27.625 4.25212 27.625 7.25C27.625 10.2479 30.4853 12.6875 34 12.6875ZM34 5.4375C34.4209 5.43714 34.8324 5.54329 35.1826 5.74251C35.5327 5.94173 35.8057 6.22507 35.9669 6.55667C36.1282 6.88826 36.1705 7.25321 36.0885 7.60532C36.0065 7.95743 35.8038 8.28088 35.5062 8.53472C35.2086 8.78857 34.8294 8.9614 34.4166 9.03135C34.0038 9.1013 33.5759 9.06522 33.1871 8.92767C32.7984 8.79012 32.4662 8.5573 32.2326 8.25866C31.999 7.96002 31.8746 7.60899 31.875 7.25C31.875 6.2495 32.8291 5.4375 34 5.4375Z" fill="#C73638"/>
</g>
<defs>
<filter id="filter0_d_258_218" x="-4" y="0" width="76" height="66" filterUnits="userSpaceOnUse" color-interpolation-filters="sRGB">
<feFlood flood-opacity="0" result="BackgroundImageFix"/>
<feColorMatrix in="SourceAlpha" type="matrix" values="0 0 0 0 0 0 0 0 0 0 0 0 0 0 0 0 0 0 127 0" result="hardAlpha"/>
<feOffset dy="4"/>
<feGaussianBlur stdDeviation="2"/>
<feComposite in2="hardAlpha" operator="out"/>
<feColorMatrix type="matrix" values="0 0 0 0 0 0 0 0 0 0 0 0 0 0 0 0 0 0 0.25 0"/>
<feBlend mode="normal" in2="BackgroundImageFix" result="effect1_dropShadow_258_218"/>
<feBlend mode="normal" in="SourceGraphic" in2="effect1_dropShadow_258_218" result="shape"/>
</filter>
</defs>
</svg>
