<svg width="35" height="36" viewBox="0 0 35 36" fill="none" xmlns="http://www.w3.org/2000/svg">
<path d="M25.1562 9.54688H25.1706M10.0625 2.9375H24.4375C28.407 2.9375 31.625 6.22541 31.625 10.2812V24.9688C31.625 29.0246 28.407 32.3125 24.4375 32.3125H10.0625C6.09295 32.3125 2.875 29.0246 2.875 24.9688V10.2812C2.875 6.22541 6.09295 2.9375 10.0625 2.9375ZM23 16.6997C23.1774 17.922 22.9731 19.1704 22.416 20.2673C21.859 21.3642 20.9776 22.2536 19.8973 22.8092C18.817 23.3648 17.5928 23.5582 16.3987 23.3618C15.2046 23.1655 14.1015 22.5895 13.2463 21.7157C12.3911 20.8419 11.8274 19.7148 11.6352 18.4948C11.4431 17.2748 11.6323 16.0239 12.1761 14.9201C12.7198 13.8163 13.5904 12.9158 14.6639 12.3467C15.7374 11.7775 16.9593 11.5687 18.1556 11.75C19.376 11.9349 20.5057 12.5159 21.3781 13.4072C22.2504 14.2985 22.819 15.4528 23 16.6997Z" stroke="white" stroke-width="4" stroke-linecap="round" stroke-linejoin="round"/>
</svg>
