<svg width="35" height="36" viewBox="0 0 35 36" fill="none" xmlns="http://www.w3.org/2000/svg">
<path d="M23 11.75C25.2875 11.75 27.4813 12.6785 29.0988 14.3311C30.7163 15.9838 31.625 18.2253 31.625 20.5625V30.8438H25.875V20.5625C25.875 19.7834 25.5721 19.0363 25.0329 18.4854C24.4938 17.9345 23.7625 17.625 23 17.625C22.2375 17.625 21.5062 17.9345 20.9671 18.4854C20.4279 19.0363 20.125 19.7834 20.125 20.5625V30.8438H14.375V20.5625C14.375 18.2253 15.2837 15.9838 16.9012 14.3311C18.5187 12.6785 20.7125 11.75 23 11.75Z" stroke="white" stroke-width="3" stroke-linecap="round" stroke-linejoin="round"/>
<path d="M8.625 13.2188H2.875V30.8438H8.625V13.2188Z" stroke="white" stroke-width="3" stroke-linecap="round" stroke-linejoin="round"/>
<path d="M5.75 8.8125C7.33782 8.8125 8.625 7.49734 8.625 5.875C8.625 4.25266 7.33782 2.9375 5.75 2.9375C4.16218 2.9375 2.875 4.25266 2.875 5.875C2.875 7.49734 4.16218 8.8125 5.75 8.8125Z" stroke="white" stroke-width="3" stroke-linecap="round" stroke-linejoin="round"/>
</svg>
