<svg width="22" height="22" viewBox="0 0 22 22" fill="none" xmlns="http://www.w3.org/2000/svg">
<rect width="22" height="22" rx="2" fill="black"/>
<path d="M14.6668 7.33334C16.1255 7.33334 17.5245 7.91281 18.5559 8.94426C19.5874 9.97571 20.1668 11.3747 20.1668 12.8333V19.25H16.5002V12.8333C16.5002 12.3471 16.307 11.8808 15.9632 11.537C15.6194 11.1932 15.1531 11 14.6668 11C14.1806 11 13.7143 11.1932 13.3705 11.537C13.0267 11.8808 12.8335 12.3471 12.8335 12.8333V19.25H9.16683V12.8333C9.16683 11.3747 9.74629 9.97571 10.7777 8.94426C11.8092 7.91281 13.2081 7.33334 14.6668 7.33334Z" fill="white"/>
<path d="M5.50016 8.25001H1.8335V19.25H5.50016V8.25001Z" fill="white"/>
<path d="M3.66683 5.50001C4.67935 5.50001 5.50016 4.6792 5.50016 3.66668C5.50016 2.65415 4.67935 1.83334 3.66683 1.83334C2.65431 1.83334 1.8335 2.65415 1.8335 3.66668C1.8335 4.6792 2.65431 5.50001 3.66683 5.50001Z" fill="white"/>
<path d="M14.6668 7.33334C16.1255 7.33334 17.5245 7.91281 18.5559 8.94426C19.5874 9.97571 20.1668 11.3747 20.1668 12.8333V19.25H16.5002V12.8333C16.5002 12.3471 16.307 11.8808 15.9632 11.537C15.6194 11.1932 15.1531 11 14.6668 11C14.1806 11 13.7143 11.1932 13.3705 11.537C13.0267 11.8808 12.8335 12.3471 12.8335 12.8333V19.25H9.16683V12.8333C9.16683 11.3747 9.74629 9.97571 10.7777 8.94426C11.8092 7.91281 13.2081 7.33334 14.6668 7.33334Z" stroke="white" stroke-linecap="round" stroke-linejoin="round"/>
<path d="M5.50016 8.25001H1.8335V19.25H5.50016V8.25001Z" stroke="white" stroke-linecap="round" stroke-linejoin="round"/>
<path d="M3.66683 5.50001C4.67935 5.50001 5.50016 4.6792 5.50016 3.66668C5.50016 2.65415 4.67935 1.83334 3.66683 1.83334C2.65431 1.83334 1.8335 2.65415 1.8335 3.66668C1.8335 4.6792 2.65431 5.50001 3.66683 5.50001Z" stroke="white" stroke-linecap="round" stroke-linejoin="round"/>
</svg>
