<svg width="28" height="27" viewBox="0 0 28 27" fill="none" xmlns="http://www.w3.org/2000/svg">
<path d="M4.66671 22.5C4.02504 22.5 3.47087 22.2844 3.00421 21.8531C2.55699 21.4031 2.33337 20.8688 2.33337 20.25V6.75C2.33337 6.13125 2.55699 5.60625 3.00421 5.175C3.47087 4.725 4.02504 4.5 4.66671 4.5H23.3334C23.975 4.5 24.5195 4.725 24.9667 5.175C25.4334 5.60625 25.6667 6.13125 25.6667 6.75V20.25C25.6667 20.8688 25.4334 21.4031 24.9667 21.8531C24.5195 22.2844 23.975 22.5 23.3334 22.5H4.66671ZM14 14.625L23.3334 9V6.75L14 12.375L4.66671 6.75V9L14 14.625Z" fill="#1D1B20"/>
</svg>
