<svg width="74" height="66" viewBox="0 0 74 66" fill="none" xmlns="http://www.w3.org/2000/svg">
<g id="Frame" filter="url(#filter0_d_258_224)">
<g id="Group">
<g id="Group_2">
<path id="Vector" d="M62.0899 41.064C66.9306 38.9996 69.9375 34.8498 69.9375 30.2334V26.2812H48.9839L46.7559 31.9816C46.6284 32.3114 46.5625 32.6549 46.5625 33.002C46.5625 34.2327 47.3636 35.3401 48.6546 35.8902L48.6875 37.6873C48.6875 38.7558 49.1752 39.7608 50.0613 40.5166C50.8412 41.1818 51.8527 41.5652 52.9375 41.6512V45.5454C51.9292 46.1662 51.0197 46.883 50.226 47.6787C48.2126 45.4611 45.3162 43.9984 42.0469 43.5671L41.607 42.4406C44.4407 41.8878 46.5625 39.7255 46.5625 37.1436V33.002V26.2812H43.375V23.0822C43.375 21.9883 43.9732 20.948 45.0155 20.2284C48.0245 18.1522 49.75 15.0737 49.75 11.7812C49.75 8.69094 48.2009 5.73566 45.4979 3.67394C42.7981 1.61403 39.1696 0.633469 35.5359 0.976031C29.9418 1.50891 25.2615 5.32784 24.4062 10.0576C23.7039 13.9372 25.3954 17.7253 28.9303 20.1912C30.0066 20.9425 30.625 21.9965 30.625 23.0849V26.2812H27.4375V33.002V37.1436C27.4375 39.7255 29.5593 41.8878 32.393 42.4406L31.9521 43.568C28.7189 44.0012 25.7832 45.491 23.7772 47.6833C22.9824 46.8857 22.0719 46.168 21.0614 45.5454V41.6512C22.1462 41.5652 23.1577 41.1818 23.9376 40.5157C24.8248 39.7608 25.3125 38.7567 25.3125 37.6873V35.9038L25.3454 35.8902C26.6364 35.3401 27.4375 34.2327 27.4375 33.002C27.4375 32.6549 27.3716 32.3114 27.2431 31.9807L25.0161 26.2812H22.125V10.6611L17.1759 2.2185C16.702 1.40922 15.7489 0.90625 14.6875 0.90625C13.6261 0.90625 12.673 1.40922 12.1991 2.21759L7.25 10.6611V26.2812H4.0625V30.2334C4.0625 34.8498 7.06937 38.9996 11.9101 41.064L12.5625 41.3422V42.8239C7.51988 44.2141 4.0625 48.2098 4.0625 52.7863V57.0938H69.9375V52.7854C69.9375 48.2089 66.4801 44.2132 61.4375 42.823V41.3413L62.0899 41.064ZM67.8125 30.2334C67.8125 34.0587 65.3719 37.4952 61.4375 39.2923V36.6252L62.6286 35.6093C63.231 35.0963 63.5625 34.413 63.5625 33.6862V33.5312C63.5625 32.3495 62.6743 31.3418 61.4375 30.9675V28.0938H67.8125V30.2334ZM55.0625 41.6875H57.1875V39.875H53.3774H53.3763C52.6921 39.875 52.0493 39.6475 51.5648 39.2343C51.0866 38.8274 50.8125 38.2637 50.8125 37.6873V34.7837L49.6055 34.268C49.0392 34.0279 48.6875 33.5421 48.6875 33.002C48.6875 32.8498 48.7162 32.6984 48.7725 32.5543L50.5161 28.0938H59.3125V32.625H60.375C60.9604 32.625 61.4375 33.0319 61.4375 33.5312V33.6862C61.4375 33.9282 61.327 34.1566 61.1262 34.3278L59.3125 35.8748V42.8955L56.0432 44.0573C55.7096 44.1761 55.3823 44.3038 55.0625 44.4407V41.6875ZM37 46.7471L33.9655 44.1489L34.5786 42.5802H39.4214L40.0345 44.1489L37 46.7471ZM32.3803 45.3614L35.4987 48.0303L33.3673 49.8483L32.2049 45.385C32.2634 45.3768 32.3218 45.3687 32.3803 45.3614ZM41.6208 45.3596C41.6792 45.3669 41.7377 45.375 41.7961 45.3832L40.6327 49.8474L38.5013 48.0294L41.6208 45.3596ZM30.2754 18.7884C27.3291 16.733 25.9202 13.572 26.5057 10.3331C27.2176 6.39903 31.1138 3.22081 35.7707 2.77675C38.8466 2.48675 41.7972 3.28244 44.0805 5.02425C46.333 6.74341 47.625 9.20569 47.625 11.7812C47.625 14.5236 46.1864 17.0892 43.6799 18.8192C42.27 19.7916 41.4179 21.1727 41.2787 22.6562H39.1983L39.8358 14.5H41.25C43.0074 14.5 44.4375 13.2802 44.4375 11.7812C44.4375 10.2823 43.0074 9.0625 41.25 9.0625H41.1129C39.4416 9.0625 38.0444 10.1772 37.9329 11.6009L37.8479 12.6875H36.1521L36.0671 11.6C35.9556 10.1772 34.5584 9.0625 32.8871 9.0625H32.75C30.9926 9.0625 29.5625 10.2823 29.5625 11.7812C29.5625 13.2802 30.9926 14.5 32.75 14.5H34.1642L34.8017 22.6562H32.7202C32.5779 21.18 31.7098 19.788 30.2754 18.7884ZM36.9309 22.6562L36.2934 14.5H37.7055L37.068 22.6562H36.9309ZM39.9771 12.6875L40.0526 11.7214C40.0898 11.2466 40.5562 10.875 41.1129 10.875H41.25C41.8354 10.875 42.3125 11.2819 42.3125 11.7812C42.3125 12.2806 41.8354 12.6875 41.25 12.6875H39.9771ZM34.0229 12.6875H32.75C32.1646 12.6875 31.6875 12.2806 31.6875 11.7812C31.6875 11.2819 32.1646 10.875 32.75 10.875H32.8871C33.4438 10.875 33.9103 11.2466 33.9474 11.7214L34.0229 12.6875ZM32.75 24.4688H41.25V26.2812H32.75V24.4688ZM29.5625 37.1436V28.0938H44.4375V37.1436C44.4375 39.1427 42.5314 40.7686 40.1875 40.7686H33.8125C31.4686 40.7686 29.5625 39.1418 29.5625 37.1436ZM20.2943 47.3153L19.5623 48.5632L15.6108 46.5414L15.1677 45.0307L17.1387 45.7312C18.2915 46.1399 19.3487 46.6764 20.2943 47.3153ZM25.2275 32.5534C25.2838 32.6984 25.3125 32.8488 25.3125 33.002C25.3125 33.5421 24.9608 34.0279 24.3945 34.2689L23.1875 34.7846V37.6882C23.1875 38.2728 22.9208 38.8219 22.4352 39.2361C21.9518 39.6484 21.3079 39.875 20.6237 39.875H20.6226H16.8125V41.6875H18.9375V44.4416C18.6177 44.3048 18.2904 44.177 17.9568 44.0583L14.6875 42.8955V35.8748L12.8738 34.3278C12.673 34.1566 12.5625 33.9282 12.5625 33.6862V33.5312C12.5625 33.0319 13.0396 32.625 13.625 32.625H14.6875V28.0938H23.4839L25.2275 32.5534ZM15.75 26.2812V11.7812H20V26.2812H15.75ZM14.0999 3.02778C14.3241 2.64625 15.0509 2.64625 15.274 3.02778L19.3434 9.96875H10.0316L14.0999 3.02778ZM9.375 11.7812H13.625V26.2812H9.375V11.7812ZM6.1875 30.2334V28.0938H12.5625V30.9675C11.3257 31.3418 10.4375 32.3495 10.4375 33.5312V33.6862C10.4375 34.4121 10.769 35.0954 11.3714 35.6093L12.5625 36.6252V39.2923C8.62806 37.4943 6.1875 34.0587 6.1875 30.2334ZM12.5625 55.2812V49.8438H10.4375V55.2812H6.1875V52.7854C6.1875 49.1079 8.88625 45.8825 12.8664 44.6482L13.7631 47.7086L20.4367 51.1243L21.9072 48.6149C23.8282 50.4346 25.0362 52.7619 25.27 55.2812H12.5625ZM27.4014 55.2812C27.2261 53.0908 26.4186 51.0201 25.1032 49.2239C26.3516 47.6842 28.1207 46.5106 30.1501 45.8526L32.1327 53.4642L37 49.3127L41.8673 53.4642L43.8521 45.8454C45.8857 46.4952 47.6367 47.6606 48.8979 49.2221C47.5825 51.0182 46.7729 53.0899 46.5986 55.2812H27.4014ZM67.8125 52.7854V55.2812H63.5625V49.8438H61.4375V55.2812H48.73C49.121 51.0654 52.2256 47.3778 56.8613 45.7303L60.4504 44.4552C64.8024 45.5164 67.8125 48.9003 67.8125 52.7854Z" fill="#C73638"/>
<path id="Vector_2" d="M41.25 34.4375H39.125C39.125 34.9368 38.6479 35.3438 38.0625 35.3438H33.8125V37.1562H38.0625C39.8199 37.1562 41.25 35.9364 41.25 34.4375Z" fill="#C73638"/>
<path id="Vector_3" d="M55.0625 21.75C55.0625 23.2489 56.4926 24.4688 58.25 24.4688C60.0074 24.4688 61.4375 23.2489 61.4375 21.75C61.4375 20.2511 60.0074 19.0312 58.25 19.0312C56.4926 19.0312 55.0625 20.2511 55.0625 21.75ZM59.3125 21.75C59.3125 22.2493 58.8354 22.6562 58.25 22.6562C57.6646 22.6562 57.1875 22.2493 57.1875 21.75C57.1875 21.2507 57.6646 20.8438 58.25 20.8438C58.8354 20.8438 59.3125 21.2507 59.3125 21.75Z" fill="#C73638"/>
<path id="Vector_4" d="M54 7.90975C54 6.0465 55.7765 4.53125 57.961 4.53125H58.5401C60.7235 4.53125 62.5 6.0465 62.5 7.90975C62.5 8.94197 61.9581 9.9035 61.0136 10.5478L57.1875 13.1588V17.2188H59.3125V14.0287L62.3406 11.9625C63.792 10.9729 64.625 9.49569 64.625 7.90975C64.625 5.04691 61.8954 2.71875 58.539 2.71875H57.9599C54.6046 2.71875 51.875 5.04691 51.875 7.90975V8.15625H54V7.90975Z" fill="#C73638"/>
</g>
</g>
</g>
<defs>
<filter id="filter0_d_258_224" x="-1" y="0" width="76" height="66" filterUnits="userSpaceOnUse" color-interpolation-filters="sRGB">
<feFlood flood-opacity="0" result="BackgroundImageFix"/>
<feColorMatrix in="SourceAlpha" type="matrix" values="0 0 0 0 0 0 0 0 0 0 0 0 0 0 0 0 0 0 127 0" result="hardAlpha"/>
<feOffset dy="4"/>
<feGaussianBlur stdDeviation="2"/>
<feComposite in2="hardAlpha" operator="out"/>
<feColorMatrix type="matrix" values="0 0 0 0 0 0 0 0 0 0 0 0 0 0 0 0 0 0 0.25 0"/>
<feBlend mode="normal" in2="BackgroundImageFix" result="effect1_dropShadow_258_224"/>
<feBlend mode="normal" in="SourceGraphic" in2="effect1_dropShadow_258_224" result="shape"/>
</filter>
</defs>
</svg>
